<mxfile host="app.diagrams.net" agent="Mozilla/5.0 (Windows NT 10.0; Win64; x64) AppleWebKit/537.36 (KHTML, like Gecko) Chrome/136.0.0.0 Safari/537.36" version="26.2.14">
  <diagram name="Page-1" id="jP25iGPnFpqm7YmDpu2m">
    <mxGraphModel dx="3179" dy="2122" grid="0" gridSize="10" guides="1" tooltips="1" connect="1" arrows="1" fold="1" page="1" pageScale="1" pageWidth="850" pageHeight="1100" math="0" shadow="0">
      <root>
        <mxCell id="0" />
        <mxCell id="1" parent="0" />
        <mxCell id="KqDTZnXE4y3Olz9iNi2S-276" value="" style="group" parent="1" vertex="1" connectable="0">
          <mxGeometry x="-540" y="20" width="1280" height="470" as="geometry" />
        </mxCell>
        <mxCell id="KqDTZnXE4y3Olz9iNi2S-6" value="" style="endArrow=none;html=1;rounded=0;" parent="KqDTZnXE4y3Olz9iNi2S-276" edge="1">
          <mxGeometry width="50" height="50" relative="1" as="geometry">
            <mxPoint x="100" y="100" as="sourcePoint" />
            <mxPoint x="1180" y="100" as="targetPoint" />
          </mxGeometry>
        </mxCell>
        <mxCell id="KqDTZnXE4y3Olz9iNi2S-20" value="" style="group" parent="KqDTZnXE4y3Olz9iNi2S-276" vertex="1" connectable="0">
          <mxGeometry x="480" y="100" width="200" height="170" as="geometry" />
        </mxCell>
        <mxCell id="KqDTZnXE4y3Olz9iNi2S-7" value="" style="endArrow=none;html=1;rounded=0;" parent="KqDTZnXE4y3Olz9iNi2S-20" edge="1">
          <mxGeometry width="50" height="50" relative="1" as="geometry">
            <mxPoint x="100" y="40" as="sourcePoint" />
            <mxPoint x="100" as="targetPoint" />
          </mxGeometry>
        </mxCell>
        <mxCell id="KqDTZnXE4y3Olz9iNi2S-198" value="&lt;font style=&quot;font-size: 11px;&quot;&gt;10.252.108.53&lt;/font&gt;" style="edgeLabel;html=1;align=center;verticalAlign=middle;resizable=0;points=[];" parent="KqDTZnXE4y3Olz9iNi2S-7" vertex="1" connectable="0">
          <mxGeometry x="0.0435" y="1" relative="1" as="geometry">
            <mxPoint as="offset" />
          </mxGeometry>
        </mxCell>
        <mxCell id="KqDTZnXE4y3Olz9iNi2S-9" value="&lt;span style=&quot;color: rgba(0, 0, 0, 0); font-family: monospace; font-size: 0px; text-align: start; text-wrap-mode: nowrap;&quot;&gt;%3CmxGraphModel%3E%3Croot%3E%3CmxCell%20id%3D%220%22%2F%3E%3CmxCell%20id%3D%221%22%20parent%3D%220%22%2F%3E%3CmxCell%20id%3D%222%22%20value%3D%22%22%20style%3D%22endArrow%3Dnone%3Bhtml%3D1%3Brounded%3D0%3BexitX%3D0%3BexitY%3D1%3BexitDx%3D0%3BexitDy%3D0%3BentryX%3D1%3BentryY%3D0%3BentryDx%3D0%3BentryDy%3D0%3B%22%20edge%3D%221%22%20parent%3D%221%22%3E%3CmxGeometry%20width%3D%2250%22%20height%3D%2250%22%20relative%3D%221%22%20as%3D%22geometry%22%3E%3CmxPoint%20x%3D%22-214%22%20y%3D%22194%22%20as%3D%22sourcePoint%22%2F%3E%3CmxPoint%20x%3D%22-186%22%20y%3D%22166%22%20as%3D%22targetPoint%22%2F%3E%3C%2FmxGeometry%3E%3C%2FmxCell%3E%3C%2Froot%3E%3C%2FmxGraphModel%3E&lt;/span&gt;" style="ellipse;whiteSpace=wrap;html=1;aspect=fixed;fillColor=#FFFF99;" parent="KqDTZnXE4y3Olz9iNi2S-20" vertex="1">
          <mxGeometry x="80" y="40" width="40" height="40" as="geometry" />
        </mxCell>
        <mxCell id="KqDTZnXE4y3Olz9iNi2S-22" value="" style="group" parent="KqDTZnXE4y3Olz9iNi2S-20" vertex="1" connectable="0">
          <mxGeometry y="80" width="200" height="90" as="geometry" />
        </mxCell>
        <mxCell id="KqDTZnXE4y3Olz9iNi2S-10" value="" style="endArrow=none;html=1;rounded=0;" parent="KqDTZnXE4y3Olz9iNi2S-22" edge="1">
          <mxGeometry width="50" height="50" relative="1" as="geometry">
            <mxPoint x="100" y="30" as="sourcePoint" />
            <mxPoint x="100" as="targetPoint" />
          </mxGeometry>
        </mxCell>
        <mxCell id="KqDTZnXE4y3Olz9iNi2S-210" value="&lt;font style=&quot;font-size: 10px;&quot;&gt;192.168.3.1/24&lt;/font&gt;" style="edgeLabel;html=1;align=center;verticalAlign=middle;resizable=0;points=[];" parent="KqDTZnXE4y3Olz9iNi2S-10" vertex="1" connectable="0">
          <mxGeometry x="0.1511" y="-1" relative="1" as="geometry">
            <mxPoint x="-1" y="2" as="offset" />
          </mxGeometry>
        </mxCell>
        <mxCell id="KqDTZnXE4y3Olz9iNi2S-19" value="" style="group" parent="KqDTZnXE4y3Olz9iNi2S-22" vertex="1" connectable="0">
          <mxGeometry y="30" width="200" height="60" as="geometry" />
        </mxCell>
        <mxCell id="KqDTZnXE4y3Olz9iNi2S-11" value="&lt;font style=&quot;font-size: 8px;&quot;&gt;&lt;b&gt;client&lt;/b&gt;&lt;/font&gt;" style="whiteSpace=wrap;html=1;aspect=fixed;" parent="KqDTZnXE4y3Olz9iNi2S-19" vertex="1">
          <mxGeometry y="25" width="40" height="40" as="geometry" />
        </mxCell>
        <mxCell id="KqDTZnXE4y3Olz9iNi2S-12" value="" style="endArrow=none;html=1;rounded=0;" parent="KqDTZnXE4y3Olz9iNi2S-19" edge="1">
          <mxGeometry width="50" height="50" relative="1" as="geometry">
            <mxPoint x="20" as="sourcePoint" />
            <mxPoint x="180" as="targetPoint" />
          </mxGeometry>
        </mxCell>
        <mxCell id="KqDTZnXE4y3Olz9iNi2S-13" value="" style="endArrow=none;html=1;rounded=0;" parent="KqDTZnXE4y3Olz9iNi2S-19" edge="1">
          <mxGeometry width="50" height="50" relative="1" as="geometry">
            <mxPoint x="20" y="24" as="sourcePoint" />
            <mxPoint x="20" as="targetPoint" />
          </mxGeometry>
        </mxCell>
        <mxCell id="KqDTZnXE4y3Olz9iNi2S-242" value="&lt;font style=&quot;font-size: 9px;&quot;&gt;192.168.3.100/24&lt;/font&gt;" style="edgeLabel;html=1;align=center;verticalAlign=middle;resizable=0;points=[];" parent="KqDTZnXE4y3Olz9iNi2S-13" vertex="1" connectable="0">
          <mxGeometry x="0.0178" y="1" relative="1" as="geometry">
            <mxPoint as="offset" />
          </mxGeometry>
        </mxCell>
        <mxCell id="KqDTZnXE4y3Olz9iNi2S-14" value="" style="endArrow=none;html=1;rounded=0;" parent="KqDTZnXE4y3Olz9iNi2S-19" edge="1">
          <mxGeometry width="50" height="50" relative="1" as="geometry">
            <mxPoint x="100" y="24" as="sourcePoint" />
            <mxPoint x="99.88" as="targetPoint" />
          </mxGeometry>
        </mxCell>
        <mxCell id="KqDTZnXE4y3Olz9iNi2S-243" value="&lt;font style=&quot;font-size: 9px;&quot;&gt;192.168.3.10/24&lt;/font&gt;" style="edgeLabel;html=1;align=center;verticalAlign=middle;resizable=0;points=[];" parent="KqDTZnXE4y3Olz9iNi2S-14" vertex="1" connectable="0">
          <mxGeometry x="0.1377" y="-1" relative="1" as="geometry">
            <mxPoint y="1" as="offset" />
          </mxGeometry>
        </mxCell>
        <mxCell id="KqDTZnXE4y3Olz9iNi2S-15" value="" style="endArrow=none;html=1;rounded=0;" parent="KqDTZnXE4y3Olz9iNi2S-19" edge="1">
          <mxGeometry width="50" height="50" relative="1" as="geometry">
            <mxPoint x="180" y="24" as="sourcePoint" />
            <mxPoint x="180" as="targetPoint" />
          </mxGeometry>
        </mxCell>
        <mxCell id="KqDTZnXE4y3Olz9iNi2S-244" value="&lt;font style=&quot;font-size: 9px;&quot;&gt;192.168.3.200/24&lt;/font&gt;" style="edgeLabel;html=1;align=center;verticalAlign=middle;resizable=0;points=[];" parent="KqDTZnXE4y3Olz9iNi2S-15" vertex="1" connectable="0">
          <mxGeometry x="-0.097" y="-1" relative="1" as="geometry">
            <mxPoint y="-1" as="offset" />
          </mxGeometry>
        </mxCell>
        <mxCell id="KqDTZnXE4y3Olz9iNi2S-17" value="&lt;font style=&quot;font-size: 8px;&quot;&gt;&lt;b&gt;server&lt;/b&gt;&lt;/font&gt;" style="whiteSpace=wrap;html=1;aspect=fixed;fillColor=#FFCC99;" parent="KqDTZnXE4y3Olz9iNi2S-19" vertex="1">
          <mxGeometry x="80" y="25" width="40" height="40" as="geometry" />
        </mxCell>
        <mxCell id="KqDTZnXE4y3Olz9iNi2S-18" value="&lt;font style=&quot;font-size: 8px;&quot;&gt;&lt;b&gt;client&lt;/b&gt;&lt;/font&gt;" style="whiteSpace=wrap;html=1;aspect=fixed;" parent="KqDTZnXE4y3Olz9iNi2S-19" vertex="1">
          <mxGeometry x="160" y="25" width="40" height="40" as="geometry" />
        </mxCell>
        <mxCell id="KqDTZnXE4y3Olz9iNi2S-178" value="" style="endArrow=none;html=1;rounded=0;exitX=0;exitY=1;exitDx=0;exitDy=0;entryX=1;entryY=0;entryDx=0;entryDy=0;" parent="KqDTZnXE4y3Olz9iNi2S-20" edge="1">
          <mxGeometry width="50" height="50" relative="1" as="geometry">
            <mxPoint x="86" y="74" as="sourcePoint" />
            <mxPoint x="114" y="46" as="targetPoint" />
          </mxGeometry>
        </mxCell>
        <mxCell id="KqDTZnXE4y3Olz9iNi2S-179" value="" style="endArrow=none;html=1;rounded=0;exitX=1;exitY=1;exitDx=0;exitDy=0;entryX=0;entryY=0;entryDx=0;entryDy=0;elbow=vertical;" parent="KqDTZnXE4y3Olz9iNi2S-20" edge="1">
          <mxGeometry width="50" height="50" relative="1" as="geometry">
            <mxPoint x="114" y="74" as="sourcePoint" />
            <mxPoint x="86" y="46" as="targetPoint" />
          </mxGeometry>
        </mxCell>
        <mxCell id="KqDTZnXE4y3Olz9iNi2S-33" value="" style="group" parent="KqDTZnXE4y3Olz9iNi2S-276" vertex="1" connectable="0">
          <mxGeometry x="720" y="100" width="200" height="170" as="geometry" />
        </mxCell>
        <mxCell id="KqDTZnXE4y3Olz9iNi2S-34" value="" style="endArrow=none;html=1;rounded=0;" parent="KqDTZnXE4y3Olz9iNi2S-33" edge="1">
          <mxGeometry width="50" height="50" relative="1" as="geometry">
            <mxPoint x="100" y="40" as="sourcePoint" />
            <mxPoint x="100" as="targetPoint" />
          </mxGeometry>
        </mxCell>
        <mxCell id="KqDTZnXE4y3Olz9iNi2S-199" value="&lt;font style=&quot;font-size: 11px;&quot;&gt;10.252.108.54&lt;/font&gt;" style="edgeLabel;html=1;align=center;verticalAlign=middle;resizable=0;points=[];" parent="KqDTZnXE4y3Olz9iNi2S-34" vertex="1" connectable="0">
          <mxGeometry x="0.3235" y="-1" relative="1" as="geometry">
            <mxPoint x="-1" y="4" as="offset" />
          </mxGeometry>
        </mxCell>
        <mxCell id="KqDTZnXE4y3Olz9iNi2S-35" value="" style="ellipse;whiteSpace=wrap;html=1;aspect=fixed;fillColor=#FFFF99;" parent="KqDTZnXE4y3Olz9iNi2S-33" vertex="1">
          <mxGeometry x="80" y="40" width="40" height="40" as="geometry" />
        </mxCell>
        <mxCell id="KqDTZnXE4y3Olz9iNi2S-36" value="" style="group" parent="KqDTZnXE4y3Olz9iNi2S-33" vertex="1" connectable="0">
          <mxGeometry y="80" width="200" height="90" as="geometry" />
        </mxCell>
        <mxCell id="KqDTZnXE4y3Olz9iNi2S-37" value="" style="endArrow=none;html=1;rounded=0;" parent="KqDTZnXE4y3Olz9iNi2S-36" edge="1">
          <mxGeometry width="50" height="50" relative="1" as="geometry">
            <mxPoint x="100" y="30" as="sourcePoint" />
            <mxPoint x="100" as="targetPoint" />
          </mxGeometry>
        </mxCell>
        <mxCell id="KqDTZnXE4y3Olz9iNi2S-211" value="&lt;font style=&quot;font-size: 10px;&quot;&gt;192.168.4.1/24&lt;/font&gt;" style="edgeLabel;html=1;align=center;verticalAlign=middle;resizable=0;points=[];" parent="KqDTZnXE4y3Olz9iNi2S-37" vertex="1" connectable="0">
          <mxGeometry x="0.1369" y="2" relative="1" as="geometry">
            <mxPoint x="2" y="2" as="offset" />
          </mxGeometry>
        </mxCell>
        <mxCell id="KqDTZnXE4y3Olz9iNi2S-38" value="" style="group" parent="KqDTZnXE4y3Olz9iNi2S-36" vertex="1" connectable="0">
          <mxGeometry y="30" width="200" height="60" as="geometry" />
        </mxCell>
        <mxCell id="KqDTZnXE4y3Olz9iNi2S-39" value="&lt;font style=&quot;font-size: 8px;&quot;&gt;&lt;b&gt;client&lt;/b&gt;&lt;/font&gt;" style="whiteSpace=wrap;html=1;aspect=fixed;" parent="KqDTZnXE4y3Olz9iNi2S-38" vertex="1">
          <mxGeometry y="25" width="40" height="40" as="geometry" />
        </mxCell>
        <mxCell id="KqDTZnXE4y3Olz9iNi2S-40" value="" style="endArrow=none;html=1;rounded=0;" parent="KqDTZnXE4y3Olz9iNi2S-38" edge="1">
          <mxGeometry width="50" height="50" relative="1" as="geometry">
            <mxPoint x="20" as="sourcePoint" />
            <mxPoint x="180" as="targetPoint" />
          </mxGeometry>
        </mxCell>
        <mxCell id="KqDTZnXE4y3Olz9iNi2S-41" value="" style="endArrow=none;html=1;rounded=0;" parent="KqDTZnXE4y3Olz9iNi2S-38" edge="1">
          <mxGeometry width="50" height="50" relative="1" as="geometry">
            <mxPoint x="20" y="24" as="sourcePoint" />
            <mxPoint x="20" as="targetPoint" />
          </mxGeometry>
        </mxCell>
        <mxCell id="KqDTZnXE4y3Olz9iNi2S-245" value="&lt;font style=&quot;font-size: 9px;&quot;&gt;192.168.4.100/24&lt;/font&gt;" style="edgeLabel;html=1;align=center;verticalAlign=middle;resizable=0;points=[];" parent="KqDTZnXE4y3Olz9iNi2S-41" vertex="1" connectable="0">
          <mxGeometry x="0.1002" relative="1" as="geometry">
            <mxPoint y="1" as="offset" />
          </mxGeometry>
        </mxCell>
        <mxCell id="KqDTZnXE4y3Olz9iNi2S-42" value="" style="endArrow=none;html=1;rounded=0;" parent="KqDTZnXE4y3Olz9iNi2S-38" edge="1">
          <mxGeometry width="50" height="50" relative="1" as="geometry">
            <mxPoint x="100" y="24" as="sourcePoint" />
            <mxPoint x="99.88" as="targetPoint" />
          </mxGeometry>
        </mxCell>
        <mxCell id="KqDTZnXE4y3Olz9iNi2S-246" value="&lt;font style=&quot;font-size: 9px;&quot;&gt;192.168.4.10/24&lt;/font&gt;" style="edgeLabel;html=1;align=center;verticalAlign=middle;resizable=0;points=[];" parent="KqDTZnXE4y3Olz9iNi2S-42" vertex="1" connectable="0">
          <mxGeometry x="-0.0781" y="1" relative="1" as="geometry">
            <mxPoint x="1" y="-1" as="offset" />
          </mxGeometry>
        </mxCell>
        <mxCell id="KqDTZnXE4y3Olz9iNi2S-43" value="" style="endArrow=none;html=1;rounded=0;" parent="KqDTZnXE4y3Olz9iNi2S-38" edge="1">
          <mxGeometry width="50" height="50" relative="1" as="geometry">
            <mxPoint x="180" y="24" as="sourcePoint" />
            <mxPoint x="180" as="targetPoint" />
          </mxGeometry>
        </mxCell>
        <mxCell id="KqDTZnXE4y3Olz9iNi2S-247" value="&lt;font style=&quot;font-size: 9px;&quot;&gt;192.168.4.200/24&lt;/font&gt;" style="edgeLabel;html=1;align=center;verticalAlign=middle;resizable=0;points=[];" parent="KqDTZnXE4y3Olz9iNi2S-43" vertex="1" connectable="0">
          <mxGeometry x="-0.1365" y="-1" relative="1" as="geometry">
            <mxPoint x="-1" y="-3" as="offset" />
          </mxGeometry>
        </mxCell>
        <mxCell id="KqDTZnXE4y3Olz9iNi2S-44" value="&lt;font style=&quot;font-size: 8px;&quot;&gt;&lt;b&gt;server&lt;/b&gt;&lt;/font&gt;" style="whiteSpace=wrap;html=1;aspect=fixed;fillColor=#FFCC99;" parent="KqDTZnXE4y3Olz9iNi2S-38" vertex="1">
          <mxGeometry x="80" y="25" width="40" height="40" as="geometry" />
        </mxCell>
        <mxCell id="KqDTZnXE4y3Olz9iNi2S-45" value="&lt;font style=&quot;font-size: 8px;&quot;&gt;&lt;b&gt;client&lt;/b&gt;&lt;/font&gt;" style="whiteSpace=wrap;html=1;aspect=fixed;" parent="KqDTZnXE4y3Olz9iNi2S-38" vertex="1">
          <mxGeometry x="160" y="25" width="40" height="40" as="geometry" />
        </mxCell>
        <mxCell id="KqDTZnXE4y3Olz9iNi2S-186" value="" style="endArrow=none;html=1;rounded=0;exitX=1;exitY=1;exitDx=0;exitDy=0;entryX=0;entryY=0;entryDx=0;entryDy=0;elbow=vertical;" parent="KqDTZnXE4y3Olz9iNi2S-33" edge="1">
          <mxGeometry width="50" height="50" relative="1" as="geometry">
            <mxPoint x="114" y="74" as="sourcePoint" />
            <mxPoint x="86" y="46" as="targetPoint" />
          </mxGeometry>
        </mxCell>
        <mxCell id="KqDTZnXE4y3Olz9iNi2S-188" value="" style="endArrow=none;html=1;rounded=0;exitX=0;exitY=1;exitDx=0;exitDy=0;entryX=1;entryY=0;entryDx=0;entryDy=0;" parent="KqDTZnXE4y3Olz9iNi2S-33" edge="1">
          <mxGeometry width="50" height="50" relative="1" as="geometry">
            <mxPoint x="86" y="74" as="sourcePoint" />
            <mxPoint x="114" y="46" as="targetPoint" />
          </mxGeometry>
        </mxCell>
        <mxCell id="KqDTZnXE4y3Olz9iNi2S-47" value="" style="group" parent="KqDTZnXE4y3Olz9iNi2S-276" vertex="1" connectable="0">
          <mxGeometry x="960" y="100" width="200" height="170" as="geometry" />
        </mxCell>
        <mxCell id="KqDTZnXE4y3Olz9iNi2S-48" value="" style="endArrow=none;html=1;rounded=0;" parent="KqDTZnXE4y3Olz9iNi2S-47" edge="1">
          <mxGeometry width="50" height="50" relative="1" as="geometry">
            <mxPoint x="100" y="40" as="sourcePoint" />
            <mxPoint x="100" as="targetPoint" />
          </mxGeometry>
        </mxCell>
        <mxCell id="KqDTZnXE4y3Olz9iNi2S-200" value="&lt;font style=&quot;font-size: 11px;&quot;&gt;10.252.108.55&lt;/font&gt;" style="edgeLabel;html=1;align=center;verticalAlign=middle;resizable=0;points=[];" parent="KqDTZnXE4y3Olz9iNi2S-48" vertex="1" connectable="0">
          <mxGeometry x="0.049" y="1" relative="1" as="geometry">
            <mxPoint as="offset" />
          </mxGeometry>
        </mxCell>
        <mxCell id="KqDTZnXE4y3Olz9iNi2S-49" value="" style="ellipse;whiteSpace=wrap;html=1;aspect=fixed;fillColor=#FFFF99;" parent="KqDTZnXE4y3Olz9iNi2S-47" vertex="1">
          <mxGeometry x="80" y="40" width="40" height="40" as="geometry" />
        </mxCell>
        <mxCell id="KqDTZnXE4y3Olz9iNi2S-50" value="" style="group" parent="KqDTZnXE4y3Olz9iNi2S-47" vertex="1" connectable="0">
          <mxGeometry y="80" width="200" height="90" as="geometry" />
        </mxCell>
        <mxCell id="KqDTZnXE4y3Olz9iNi2S-51" value="" style="endArrow=none;html=1;rounded=0;" parent="KqDTZnXE4y3Olz9iNi2S-50" edge="1">
          <mxGeometry width="50" height="50" relative="1" as="geometry">
            <mxPoint x="100" y="30" as="sourcePoint" />
            <mxPoint x="100" as="targetPoint" />
          </mxGeometry>
        </mxCell>
        <mxCell id="KqDTZnXE4y3Olz9iNi2S-212" value="&lt;font style=&quot;font-size: 10px;&quot;&gt;192.168.5.1/24&lt;/font&gt;" style="edgeLabel;html=1;align=center;verticalAlign=middle;resizable=0;points=[];" parent="KqDTZnXE4y3Olz9iNi2S-51" vertex="1" connectable="0">
          <mxGeometry x="0.1077" relative="1" as="geometry">
            <mxPoint y="1" as="offset" />
          </mxGeometry>
        </mxCell>
        <mxCell id="KqDTZnXE4y3Olz9iNi2S-52" value="" style="group" parent="KqDTZnXE4y3Olz9iNi2S-50" vertex="1" connectable="0">
          <mxGeometry y="30" width="200" height="60" as="geometry" />
        </mxCell>
        <mxCell id="KqDTZnXE4y3Olz9iNi2S-53" value="&lt;font style=&quot;font-size: 8px;&quot;&gt;&lt;b&gt;client&lt;/b&gt;&lt;/font&gt;" style="whiteSpace=wrap;html=1;aspect=fixed;" parent="KqDTZnXE4y3Olz9iNi2S-52" vertex="1">
          <mxGeometry y="25" width="40" height="40" as="geometry" />
        </mxCell>
        <mxCell id="KqDTZnXE4y3Olz9iNi2S-54" value="" style="endArrow=none;html=1;rounded=0;" parent="KqDTZnXE4y3Olz9iNi2S-52" edge="1">
          <mxGeometry width="50" height="50" relative="1" as="geometry">
            <mxPoint x="20" as="sourcePoint" />
            <mxPoint x="180" as="targetPoint" />
          </mxGeometry>
        </mxCell>
        <mxCell id="KqDTZnXE4y3Olz9iNi2S-55" value="" style="endArrow=none;html=1;rounded=0;" parent="KqDTZnXE4y3Olz9iNi2S-52" edge="1">
          <mxGeometry width="50" height="50" relative="1" as="geometry">
            <mxPoint x="20" y="24" as="sourcePoint" />
            <mxPoint x="20" as="targetPoint" />
          </mxGeometry>
        </mxCell>
        <mxCell id="KqDTZnXE4y3Olz9iNi2S-248" value="&lt;font style=&quot;font-size: 9px;&quot;&gt;192.168.5.100/24&lt;/font&gt;" style="edgeLabel;html=1;align=center;verticalAlign=middle;resizable=0;points=[];" parent="KqDTZnXE4y3Olz9iNi2S-55" vertex="1" connectable="0">
          <mxGeometry x="-0.1025" relative="1" as="geometry">
            <mxPoint y="-2" as="offset" />
          </mxGeometry>
        </mxCell>
        <mxCell id="KqDTZnXE4y3Olz9iNi2S-56" value="" style="endArrow=none;html=1;rounded=0;exitX=0.5;exitY=0;exitDx=0;exitDy=0;" parent="KqDTZnXE4y3Olz9iNi2S-52" source="KqDTZnXE4y3Olz9iNi2S-58" edge="1">
          <mxGeometry width="50" height="50" relative="1" as="geometry">
            <mxPoint x="99.88" y="20" as="sourcePoint" />
            <mxPoint x="99.88" as="targetPoint" />
          </mxGeometry>
        </mxCell>
        <mxCell id="KqDTZnXE4y3Olz9iNi2S-249" value="&lt;font style=&quot;font-size: 9px;&quot;&gt;192.168.5.10/24&lt;/font&gt;" style="edgeLabel;html=1;align=center;verticalAlign=middle;resizable=0;points=[];" parent="KqDTZnXE4y3Olz9iNi2S-56" vertex="1" connectable="0">
          <mxGeometry x="0.0572" relative="1" as="geometry">
            <mxPoint as="offset" />
          </mxGeometry>
        </mxCell>
        <mxCell id="KqDTZnXE4y3Olz9iNi2S-57" value="" style="endArrow=none;html=1;rounded=0;exitX=0.5;exitY=0;exitDx=0;exitDy=0;" parent="KqDTZnXE4y3Olz9iNi2S-52" source="KqDTZnXE4y3Olz9iNi2S-59" edge="1">
          <mxGeometry width="50" height="50" relative="1" as="geometry">
            <mxPoint x="180" y="20" as="sourcePoint" />
            <mxPoint x="180" as="targetPoint" />
          </mxGeometry>
        </mxCell>
        <mxCell id="KqDTZnXE4y3Olz9iNi2S-250" value="&lt;font style=&quot;font-size: 9px;&quot;&gt;192.168.5.200/24&lt;/font&gt;" style="edgeLabel;html=1;align=center;verticalAlign=middle;resizable=0;points=[];" parent="KqDTZnXE4y3Olz9iNi2S-57" vertex="1" connectable="0">
          <mxGeometry x="0.0413" y="-1" relative="1" as="geometry">
            <mxPoint y="-1" as="offset" />
          </mxGeometry>
        </mxCell>
        <mxCell id="KqDTZnXE4y3Olz9iNi2S-58" value="&lt;font style=&quot;font-size: 8px;&quot;&gt;&lt;b&gt;server&lt;/b&gt;&lt;/font&gt;" style="whiteSpace=wrap;html=1;aspect=fixed;fillColor=#FFCC99;" parent="KqDTZnXE4y3Olz9iNi2S-52" vertex="1">
          <mxGeometry x="80" y="25" width="40" height="40" as="geometry" />
        </mxCell>
        <mxCell id="KqDTZnXE4y3Olz9iNi2S-59" value="&lt;font style=&quot;font-size: 8px;&quot;&gt;&lt;b&gt;client&lt;/b&gt;&lt;/font&gt;" style="whiteSpace=wrap;html=1;aspect=fixed;" parent="KqDTZnXE4y3Olz9iNi2S-52" vertex="1">
          <mxGeometry x="160" y="25" width="40" height="40" as="geometry" />
        </mxCell>
        <mxCell id="KqDTZnXE4y3Olz9iNi2S-189" value="" style="endArrow=none;html=1;rounded=0;exitX=0;exitY=1;exitDx=0;exitDy=0;entryX=1;entryY=0;entryDx=0;entryDy=0;" parent="KqDTZnXE4y3Olz9iNi2S-47" edge="1">
          <mxGeometry width="50" height="50" relative="1" as="geometry">
            <mxPoint x="86" y="74" as="sourcePoint" />
            <mxPoint x="114" y="46" as="targetPoint" />
          </mxGeometry>
        </mxCell>
        <mxCell id="KqDTZnXE4y3Olz9iNi2S-190" value="" style="endArrow=none;html=1;rounded=0;exitX=1;exitY=1;exitDx=0;exitDy=0;entryX=0;entryY=0;entryDx=0;entryDy=0;elbow=vertical;" parent="KqDTZnXE4y3Olz9iNi2S-47" edge="1">
          <mxGeometry width="50" height="50" relative="1" as="geometry">
            <mxPoint x="114" y="74" as="sourcePoint" />
            <mxPoint x="86" y="46" as="targetPoint" />
          </mxGeometry>
        </mxCell>
        <mxCell id="KqDTZnXE4y3Olz9iNi2S-73" value="" style="group" parent="KqDTZnXE4y3Olz9iNi2S-276" vertex="1" connectable="0">
          <mxGeometry x="240" y="100" width="200" height="170" as="geometry" />
        </mxCell>
        <mxCell id="KqDTZnXE4y3Olz9iNi2S-74" value="" style="endArrow=none;html=1;rounded=0;" parent="KqDTZnXE4y3Olz9iNi2S-73" edge="1">
          <mxGeometry width="50" height="50" relative="1" as="geometry">
            <mxPoint x="100" y="40" as="sourcePoint" />
            <mxPoint x="100" as="targetPoint" />
          </mxGeometry>
        </mxCell>
        <mxCell id="KqDTZnXE4y3Olz9iNi2S-197" value="&lt;font style=&quot;font-size: 11px;&quot;&gt;10.252.108.52&lt;/font&gt;" style="edgeLabel;html=1;align=center;verticalAlign=middle;resizable=0;points=[];" parent="KqDTZnXE4y3Olz9iNi2S-74" vertex="1" connectable="0">
          <mxGeometry x="0.1175" relative="1" as="geometry">
            <mxPoint y="1" as="offset" />
          </mxGeometry>
        </mxCell>
        <mxCell id="KqDTZnXE4y3Olz9iNi2S-75" value="&lt;span style=&quot;color: rgba(0, 0, 0, 0); font-family: monospace; font-size: 0px; text-align: start; text-wrap-mode: nowrap;&quot;&gt;%3CmxGraphModel%3E%3Croot%3E%3CmxCell%20id%3D%220%22%2F%3E%3CmxCell%20id%3D%221%22%20parent%3D%220%22%2F%3E%3CmxCell%20id%3D%222%22%20value%3D%22%22%20style%3D%22endArrow%3Dnone%3Bhtml%3D1%3Brounded%3D0%3BexitX%3D1%3BexitY%3D1%3BexitDx%3D0%3BexitDy%3D0%3BentryX%3D0%3BentryY%3D0%3BentryDx%3D0%3BentryDy%3D0%3Belbow%3Dhorizontal%3B%22%20edge%3D%221%22%20parent%3D%221%22%3E%3CmxGeometry%20width%3D%2250%22%20height%3D%2250%22%20relative%3D%221%22%20as%3D%22geometry%22%3E%3CmxPoint%20x%3D%22-426%22%20y%3D%22194%22%20as%3D%22sourcePoint%22%2F%3E%3CmxPoint%20x%3D%22-454%22%20y%3D%22166%22%20as%3D%22targetPoint%22%2F%3E%3C%2FmxGeometry%3E%3C%2FmxCell%3E%3C%2Froot%3E%3C%2FmxGraphModel%3E&lt;/span&gt;" style="ellipse;whiteSpace=wrap;html=1;aspect=fixed;fillColor=#FFFF99;" parent="KqDTZnXE4y3Olz9iNi2S-73" vertex="1">
          <mxGeometry x="80" y="40" width="40" height="40" as="geometry" />
        </mxCell>
        <mxCell id="KqDTZnXE4y3Olz9iNi2S-76" value="" style="group" parent="KqDTZnXE4y3Olz9iNi2S-73" vertex="1" connectable="0">
          <mxGeometry y="80" width="200" height="90" as="geometry" />
        </mxCell>
        <mxCell id="KqDTZnXE4y3Olz9iNi2S-77" value="" style="endArrow=none;html=1;rounded=0;" parent="KqDTZnXE4y3Olz9iNi2S-76" edge="1">
          <mxGeometry width="50" height="50" relative="1" as="geometry">
            <mxPoint x="100" y="30" as="sourcePoint" />
            <mxPoint x="100" as="targetPoint" />
          </mxGeometry>
        </mxCell>
        <mxCell id="KqDTZnXE4y3Olz9iNi2S-209" value="&lt;font style=&quot;font-size: 10px;&quot;&gt;192.168.2.1/24&lt;/font&gt;" style="edgeLabel;html=1;align=center;verticalAlign=middle;resizable=0;points=[];" parent="KqDTZnXE4y3Olz9iNi2S-77" vertex="1" connectable="0">
          <mxGeometry x="0.0089" y="2" relative="1" as="geometry">
            <mxPoint as="offset" />
          </mxGeometry>
        </mxCell>
        <mxCell id="KqDTZnXE4y3Olz9iNi2S-78" value="" style="group" parent="KqDTZnXE4y3Olz9iNi2S-76" vertex="1" connectable="0">
          <mxGeometry y="30" width="200" height="60" as="geometry" />
        </mxCell>
        <mxCell id="KqDTZnXE4y3Olz9iNi2S-79" value="&lt;font style=&quot;font-size: 8px;&quot;&gt;&lt;b&gt;client&lt;/b&gt;&lt;/font&gt;" style="whiteSpace=wrap;html=1;aspect=fixed;" parent="KqDTZnXE4y3Olz9iNi2S-78" vertex="1">
          <mxGeometry y="25" width="40" height="40" as="geometry" />
        </mxCell>
        <mxCell id="KqDTZnXE4y3Olz9iNi2S-80" value="" style="endArrow=none;html=1;rounded=0;" parent="KqDTZnXE4y3Olz9iNi2S-78" edge="1">
          <mxGeometry width="50" height="50" relative="1" as="geometry">
            <mxPoint x="20" as="sourcePoint" />
            <mxPoint x="180" as="targetPoint" />
          </mxGeometry>
        </mxCell>
        <mxCell id="KqDTZnXE4y3Olz9iNi2S-81" value="" style="endArrow=none;html=1;rounded=0;" parent="KqDTZnXE4y3Olz9iNi2S-78" edge="1">
          <mxGeometry width="50" height="50" relative="1" as="geometry">
            <mxPoint x="20" y="24" as="sourcePoint" />
            <mxPoint x="20" as="targetPoint" />
          </mxGeometry>
        </mxCell>
        <mxCell id="KqDTZnXE4y3Olz9iNi2S-238" value="&lt;font style=&quot;font-size: 9px;&quot;&gt;192.168.2.100/24&lt;/font&gt;" style="edgeLabel;html=1;align=center;verticalAlign=middle;resizable=0;points=[];" parent="KqDTZnXE4y3Olz9iNi2S-81" vertex="1" connectable="0">
          <mxGeometry x="0.0222" relative="1" as="geometry">
            <mxPoint as="offset" />
          </mxGeometry>
        </mxCell>
        <mxCell id="KqDTZnXE4y3Olz9iNi2S-82" value="" style="endArrow=none;html=1;rounded=0;" parent="KqDTZnXE4y3Olz9iNi2S-78" edge="1">
          <mxGeometry width="50" height="50" relative="1" as="geometry">
            <mxPoint x="100" y="24" as="sourcePoint" />
            <mxPoint x="99.88" as="targetPoint" />
          </mxGeometry>
        </mxCell>
        <mxCell id="KqDTZnXE4y3Olz9iNi2S-239" value="&lt;font style=&quot;font-size: 9px;&quot;&gt;192.168.2.10/24&lt;/font&gt;" style="edgeLabel;html=1;align=center;verticalAlign=middle;resizable=0;points=[];" parent="KqDTZnXE4y3Olz9iNi2S-82" vertex="1" connectable="0">
          <mxGeometry x="0.1109" y="-1" relative="1" as="geometry">
            <mxPoint y="1" as="offset" />
          </mxGeometry>
        </mxCell>
        <mxCell id="KqDTZnXE4y3Olz9iNi2S-83" value="" style="endArrow=none;html=1;rounded=0;" parent="KqDTZnXE4y3Olz9iNi2S-78" edge="1">
          <mxGeometry width="50" height="50" relative="1" as="geometry">
            <mxPoint x="180" y="24" as="sourcePoint" />
            <mxPoint x="180" as="targetPoint" />
          </mxGeometry>
        </mxCell>
        <mxCell id="KqDTZnXE4y3Olz9iNi2S-240" value="&lt;font style=&quot;font-size: 9px;&quot;&gt;192.168.2.200/24&lt;/font&gt;" style="edgeLabel;html=1;align=center;verticalAlign=middle;resizable=0;points=[];" parent="KqDTZnXE4y3Olz9iNi2S-83" vertex="1" connectable="0">
          <mxGeometry x="0.0333" relative="1" as="geometry">
            <mxPoint as="offset" />
          </mxGeometry>
        </mxCell>
        <mxCell id="KqDTZnXE4y3Olz9iNi2S-84" value="&lt;font style=&quot;font-size: 8px;&quot;&gt;&lt;b&gt;server&lt;/b&gt;&lt;/font&gt;" style="whiteSpace=wrap;html=1;aspect=fixed;fillColor=#FFCC99;" parent="KqDTZnXE4y3Olz9iNi2S-78" vertex="1">
          <mxGeometry x="80" y="25" width="40" height="40" as="geometry" />
        </mxCell>
        <mxCell id="KqDTZnXE4y3Olz9iNi2S-85" value="&lt;font style=&quot;font-size: 8px;&quot;&gt;&lt;b&gt;client&lt;/b&gt;&lt;/font&gt;" style="whiteSpace=wrap;html=1;aspect=fixed;" parent="KqDTZnXE4y3Olz9iNi2S-78" vertex="1">
          <mxGeometry x="160" y="25" width="40" height="40" as="geometry" />
        </mxCell>
        <mxCell id="KqDTZnXE4y3Olz9iNi2S-173" value="" style="endArrow=none;html=1;rounded=0;exitX=1;exitY=1;exitDx=0;exitDy=0;entryX=0;entryY=0;entryDx=0;entryDy=0;elbow=vertical;" parent="KqDTZnXE4y3Olz9iNi2S-73" edge="1">
          <mxGeometry width="50" height="50" relative="1" as="geometry">
            <mxPoint x="114" y="74" as="sourcePoint" />
            <mxPoint x="86" y="46" as="targetPoint" />
          </mxGeometry>
        </mxCell>
        <mxCell id="KqDTZnXE4y3Olz9iNi2S-176" value="" style="endArrow=none;html=1;rounded=0;exitX=0;exitY=1;exitDx=0;exitDy=0;entryX=1;entryY=0;entryDx=0;entryDy=0;" parent="KqDTZnXE4y3Olz9iNi2S-73" edge="1">
          <mxGeometry width="50" height="50" relative="1" as="geometry">
            <mxPoint x="86" y="74" as="sourcePoint" />
            <mxPoint x="114" y="46" as="targetPoint" />
          </mxGeometry>
        </mxCell>
        <mxCell id="KqDTZnXE4y3Olz9iNi2S-86" value="" style="group" parent="KqDTZnXE4y3Olz9iNi2S-276" vertex="1" connectable="0">
          <mxGeometry y="100" width="200" height="170" as="geometry" />
        </mxCell>
        <mxCell id="KqDTZnXE4y3Olz9iNi2S-87" value="" style="endArrow=none;html=1;rounded=0;" parent="KqDTZnXE4y3Olz9iNi2S-86" edge="1">
          <mxGeometry width="50" height="50" relative="1" as="geometry">
            <mxPoint x="100" y="40" as="sourcePoint" />
            <mxPoint x="100" as="targetPoint" />
          </mxGeometry>
        </mxCell>
        <mxCell id="KqDTZnXE4y3Olz9iNi2S-195" value="&lt;font style=&quot;font-size: 11px;&quot;&gt;10.252.108.51&lt;/font&gt;" style="edgeLabel;html=1;align=center;verticalAlign=middle;resizable=0;points=[];" parent="KqDTZnXE4y3Olz9iNi2S-87" vertex="1" connectable="0">
          <mxGeometry x="0.2042" y="1" relative="1" as="geometry">
            <mxPoint y="1" as="offset" />
          </mxGeometry>
        </mxCell>
        <mxCell id="KqDTZnXE4y3Olz9iNi2S-88" value="&lt;span style=&quot;color: rgba(0, 0, 0, 0); font-family: monospace; font-size: 0px; text-align: start; text-wrap-mode: nowrap;&quot;&gt;%3CmxGraphModel%3E%3Croot%3E%3CmxCell%20id%3D%220%22%2F%3E%3CmxCell%20id%3D%221%22%20parent%3D%220%22%2F%3E%3CmxCell%20id%3D%222%22%20value%3D%22%22%20style%3D%22endArrow%3Dnone%3Bhtml%3D1%3Brounded%3D0%3BexitX%3D1%3BexitY%3D1%3BexitDx%3D0%3BexitDy%3D0%3BentryX%3D0%3BentryY%3D0%3BentryDx%3D0%3BentryDy%3D0%3Belbow%3Dhorizontal%3B%22%20edge%3D%221%22%20parent%3D%221%22%3E%3CmxGeometry%20width%3D%2250%22%20height%3D%2250%22%20relative%3D%221%22%20as%3D%22geometry%22%3E%3CmxPoint%20x%3D%22-426%22%20y%3D%22194%22%20as%3D%22sourcePoint%22%2F%3E%3CmxPoint%20x%3D%22-454%22%20y%3D%22166%22%20as%3D%22targetPoint%22%2F%3E%3C%2FmxGeometry%3E%3C%2FmxCell%3E%3C%2Froot%3E%3C%2FmxGraphModel%3E&lt;/span&gt;" style="ellipse;whiteSpace=wrap;html=1;aspect=fixed;fillColor=#FFFF99;" parent="KqDTZnXE4y3Olz9iNi2S-86" vertex="1">
          <mxGeometry x="80" y="40" width="40" height="40" as="geometry" />
        </mxCell>
        <mxCell id="KqDTZnXE4y3Olz9iNi2S-89" value="" style="group" parent="KqDTZnXE4y3Olz9iNi2S-86" vertex="1" connectable="0">
          <mxGeometry y="80" width="200" height="90" as="geometry" />
        </mxCell>
        <mxCell id="KqDTZnXE4y3Olz9iNi2S-90" value="" style="endArrow=none;html=1;rounded=0;" parent="KqDTZnXE4y3Olz9iNi2S-89" edge="1">
          <mxGeometry width="50" height="50" relative="1" as="geometry">
            <mxPoint x="100" y="30" as="sourcePoint" />
            <mxPoint x="100" as="targetPoint" />
          </mxGeometry>
        </mxCell>
        <mxCell id="KqDTZnXE4y3Olz9iNi2S-208" value="&lt;font style=&quot;font-size: 10px;&quot;&gt;192.168.1.1/24&lt;/font&gt;" style="edgeLabel;html=1;align=center;verticalAlign=middle;resizable=0;points=[];" parent="KqDTZnXE4y3Olz9iNi2S-90" vertex="1" connectable="0">
          <mxGeometry x="0.1821" y="1" relative="1" as="geometry">
            <mxPoint x="1" y="3" as="offset" />
          </mxGeometry>
        </mxCell>
        <mxCell id="KqDTZnXE4y3Olz9iNi2S-91" value="" style="group" parent="KqDTZnXE4y3Olz9iNi2S-89" vertex="1" connectable="0">
          <mxGeometry y="30" width="200" height="60" as="geometry" />
        </mxCell>
        <mxCell id="KqDTZnXE4y3Olz9iNi2S-92" value="&lt;font style=&quot;font-size: 8px;&quot;&gt;&lt;b&gt;client&lt;/b&gt;&lt;/font&gt;" style="whiteSpace=wrap;html=1;aspect=fixed;" parent="KqDTZnXE4y3Olz9iNi2S-91" vertex="1">
          <mxGeometry y="25" width="40" height="40" as="geometry" />
        </mxCell>
        <mxCell id="KqDTZnXE4y3Olz9iNi2S-93" value="" style="endArrow=none;html=1;rounded=0;" parent="KqDTZnXE4y3Olz9iNi2S-91" edge="1">
          <mxGeometry width="50" height="50" relative="1" as="geometry">
            <mxPoint x="20" as="sourcePoint" />
            <mxPoint x="180" as="targetPoint" />
          </mxGeometry>
        </mxCell>
        <mxCell id="KqDTZnXE4y3Olz9iNi2S-94" value="" style="endArrow=none;html=1;rounded=0;exitX=0.497;exitY=-0.013;exitDx=0;exitDy=0;exitPerimeter=0;" parent="KqDTZnXE4y3Olz9iNi2S-91" source="KqDTZnXE4y3Olz9iNi2S-92" edge="1">
          <mxGeometry width="50" height="50" relative="1" as="geometry">
            <mxPoint x="20" y="24" as="sourcePoint" />
            <mxPoint x="20" as="targetPoint" />
          </mxGeometry>
        </mxCell>
        <mxCell id="KqDTZnXE4y3Olz9iNi2S-224" value="&lt;font style=&quot;font-size: 9px;&quot;&gt;192.168.1.100/24&lt;/font&gt;" style="edgeLabel;html=1;align=center;verticalAlign=middle;resizable=0;points=[];" parent="KqDTZnXE4y3Olz9iNi2S-94" vertex="1" connectable="0">
          <mxGeometry x="0.0133" y="1" relative="1" as="geometry">
            <mxPoint x="1" as="offset" />
          </mxGeometry>
        </mxCell>
        <mxCell id="KqDTZnXE4y3Olz9iNi2S-97" value="&lt;font style=&quot;font-size: 8px;&quot;&gt;&lt;b&gt;server&lt;/b&gt;&lt;/font&gt;" style="whiteSpace=wrap;html=1;aspect=fixed;fillColor=#FFCC99;" parent="KqDTZnXE4y3Olz9iNi2S-91" vertex="1">
          <mxGeometry x="80" y="25" width="40" height="40" as="geometry" />
        </mxCell>
        <mxCell id="KqDTZnXE4y3Olz9iNi2S-98" value="&lt;font style=&quot;font-size: 8px;&quot;&gt;&lt;b&gt;client&lt;/b&gt;&lt;/font&gt;" style="whiteSpace=wrap;html=1;aspect=fixed;" parent="KqDTZnXE4y3Olz9iNi2S-91" vertex="1">
          <mxGeometry x="160" y="25" width="40" height="40" as="geometry" />
        </mxCell>
        <mxCell id="KqDTZnXE4y3Olz9iNi2S-221" value="" style="endArrow=none;html=1;rounded=0;" parent="KqDTZnXE4y3Olz9iNi2S-91" edge="1">
          <mxGeometry width="50" height="50" relative="1" as="geometry">
            <mxPoint x="99.86000000000001" y="25" as="sourcePoint" />
            <mxPoint x="100" as="targetPoint" />
          </mxGeometry>
        </mxCell>
        <mxCell id="KqDTZnXE4y3Olz9iNi2S-225" value="&lt;font style=&quot;font-size: 9px;&quot;&gt;192.168.1.10/24&lt;/font&gt;" style="edgeLabel;html=1;align=center;verticalAlign=middle;resizable=0;points=[];" parent="KqDTZnXE4y3Olz9iNi2S-221" vertex="1" connectable="0">
          <mxGeometry x="0.0294" relative="1" as="geometry">
            <mxPoint as="offset" />
          </mxGeometry>
        </mxCell>
        <mxCell id="KqDTZnXE4y3Olz9iNi2S-222" value="" style="endArrow=none;html=1;rounded=0;exitX=0.5;exitY=-0.021;exitDx=0;exitDy=0;exitPerimeter=0;" parent="KqDTZnXE4y3Olz9iNi2S-91" source="KqDTZnXE4y3Olz9iNi2S-98" edge="1">
          <mxGeometry width="50" height="50" relative="1" as="geometry">
            <mxPoint x="179.97000000000003" y="24" as="sourcePoint" />
            <mxPoint x="179.97000000000003" as="targetPoint" />
          </mxGeometry>
        </mxCell>
        <mxCell id="KqDTZnXE4y3Olz9iNi2S-226" value="&lt;font style=&quot;font-size: 9px;&quot;&gt;192.168.1.200/24&lt;/font&gt;" style="edgeLabel;html=1;align=center;verticalAlign=middle;resizable=0;points=[];" parent="KqDTZnXE4y3Olz9iNi2S-222" vertex="1" connectable="0">
          <mxGeometry x="0.0582" relative="1" as="geometry">
            <mxPoint as="offset" />
          </mxGeometry>
        </mxCell>
        <mxCell id="KqDTZnXE4y3Olz9iNi2S-168" value="" style="endArrow=none;html=1;rounded=0;exitX=0;exitY=1;exitDx=0;exitDy=0;entryX=1;entryY=0;entryDx=0;entryDy=0;" parent="KqDTZnXE4y3Olz9iNi2S-86" source="KqDTZnXE4y3Olz9iNi2S-88" target="KqDTZnXE4y3Olz9iNi2S-88" edge="1">
          <mxGeometry width="50" height="50" relative="1" as="geometry">
            <mxPoint x="65" y="100" as="sourcePoint" />
            <mxPoint x="115" y="50" as="targetPoint" />
          </mxGeometry>
        </mxCell>
        <mxCell id="KqDTZnXE4y3Olz9iNi2S-169" value="" style="endArrow=none;html=1;rounded=0;exitX=1;exitY=1;exitDx=0;exitDy=0;entryX=0;entryY=0;entryDx=0;entryDy=0;elbow=vertical;" parent="KqDTZnXE4y3Olz9iNi2S-86" source="KqDTZnXE4y3Olz9iNi2S-88" target="KqDTZnXE4y3Olz9iNi2S-88" edge="1">
          <mxGeometry width="50" height="50" relative="1" as="geometry">
            <mxPoint x="99" y="86" as="sourcePoint" />
            <mxPoint x="123" y="55" as="targetPoint" />
          </mxGeometry>
        </mxCell>
        <mxCell id="KqDTZnXE4y3Olz9iNi2S-99" value="" style="group" parent="KqDTZnXE4y3Olz9iNi2S-276" vertex="1" connectable="0">
          <mxGeometry x="550" width="75.25" height="100" as="geometry" />
        </mxCell>
        <mxCell id="KqDTZnXE4y3Olz9iNi2S-5" value="" style="endArrow=none;html=1;rounded=0;entryX=0.596;entryY=1;entryDx=0;entryDy=0;entryPerimeter=0;" parent="KqDTZnXE4y3Olz9iNi2S-99" edge="1">
          <mxGeometry width="50" height="50" relative="1" as="geometry">
            <mxPoint x="30" y="100" as="sourcePoint" />
            <mxPoint x="29.839999999999918" y="60" as="targetPoint" />
          </mxGeometry>
        </mxCell>
        <mxCell id="KqDTZnXE4y3Olz9iNi2S-206" value="&lt;font style=&quot;font-size: 12px;&quot;&gt;10.252.108.0/24&lt;/font&gt;" style="edgeLabel;html=1;align=center;verticalAlign=middle;resizable=0;points=[];" parent="KqDTZnXE4y3Olz9iNi2S-5" vertex="1" connectable="0">
          <mxGeometry x="0.4215" relative="1" as="geometry">
            <mxPoint y="9" as="offset" />
          </mxGeometry>
        </mxCell>
        <mxCell id="KqDTZnXE4y3Olz9iNi2S-4" value="&lt;font style=&quot;font-size: 10px;&quot;&gt;Master&lt;/font&gt;&lt;div&gt;&lt;font style=&quot;font-size: 10px;&quot;&gt;DNS&lt;/font&gt;&lt;/div&gt;" style="whiteSpace=wrap;html=1;aspect=fixed;fillColor=#99FF99;" parent="KqDTZnXE4y3Olz9iNi2S-99" vertex="1">
          <mxGeometry x="-15.25" y="-29" width="90.5" height="90.5" as="geometry" />
        </mxCell>
        <mxCell id="KqDTZnXE4y3Olz9iNi2S-100" value="" style="group" parent="KqDTZnXE4y3Olz9iNi2S-276" vertex="1" connectable="0">
          <mxGeometry x="120" y="300" width="200" height="170" as="geometry" />
        </mxCell>
        <mxCell id="KqDTZnXE4y3Olz9iNi2S-101" value="" style="endArrow=none;html=1;rounded=0;" parent="KqDTZnXE4y3Olz9iNi2S-100" edge="1">
          <mxGeometry width="50" height="50" relative="1" as="geometry">
            <mxPoint x="100" y="40" as="sourcePoint" />
            <mxPoint x="100" y="-200" as="targetPoint" />
          </mxGeometry>
        </mxCell>
        <mxCell id="KqDTZnXE4y3Olz9iNi2S-201" value="&lt;font style=&quot;font-size: 11px;&quot;&gt;10.252.108.56&lt;/font&gt;" style="edgeLabel;html=1;align=center;verticalAlign=middle;resizable=0;points=[];" parent="KqDTZnXE4y3Olz9iNi2S-101" vertex="1" connectable="0">
          <mxGeometry x="-0.7477" y="1" relative="1" as="geometry">
            <mxPoint x="1" y="8" as="offset" />
          </mxGeometry>
        </mxCell>
        <mxCell id="KqDTZnXE4y3Olz9iNi2S-102" value="" style="ellipse;whiteSpace=wrap;html=1;aspect=fixed;fillColor=#FFFF99;" parent="KqDTZnXE4y3Olz9iNi2S-100" vertex="1">
          <mxGeometry x="80" y="40" width="40" height="40" as="geometry" />
        </mxCell>
        <mxCell id="KqDTZnXE4y3Olz9iNi2S-103" value="" style="group" parent="KqDTZnXE4y3Olz9iNi2S-100" vertex="1" connectable="0">
          <mxGeometry y="80" width="200" height="90" as="geometry" />
        </mxCell>
        <mxCell id="KqDTZnXE4y3Olz9iNi2S-104" value="" style="endArrow=none;html=1;rounded=0;" parent="KqDTZnXE4y3Olz9iNi2S-103" edge="1">
          <mxGeometry width="50" height="50" relative="1" as="geometry">
            <mxPoint x="100" y="30" as="sourcePoint" />
            <mxPoint x="100" as="targetPoint" />
          </mxGeometry>
        </mxCell>
        <mxCell id="KqDTZnXE4y3Olz9iNi2S-213" value="&lt;font style=&quot;font-size: 10px;&quot;&gt;192.168.6.1/24&lt;/font&gt;" style="edgeLabel;html=1;align=center;verticalAlign=middle;resizable=0;points=[];" parent="KqDTZnXE4y3Olz9iNi2S-104" vertex="1" connectable="0">
          <mxGeometry x="-0.1654" y="1" relative="1" as="geometry">
            <mxPoint x="1" y="-3" as="offset" />
          </mxGeometry>
        </mxCell>
        <mxCell id="KqDTZnXE4y3Olz9iNi2S-105" value="" style="group" parent="KqDTZnXE4y3Olz9iNi2S-103" vertex="1" connectable="0">
          <mxGeometry y="30" width="200" height="60" as="geometry" />
        </mxCell>
        <mxCell id="KqDTZnXE4y3Olz9iNi2S-106" value="&lt;font style=&quot;font-size: 8px;&quot;&gt;&lt;b&gt;client&lt;/b&gt;&lt;/font&gt;" style="whiteSpace=wrap;html=1;aspect=fixed;" parent="KqDTZnXE4y3Olz9iNi2S-105" vertex="1">
          <mxGeometry y="27" width="40" height="40" as="geometry" />
        </mxCell>
        <mxCell id="KqDTZnXE4y3Olz9iNi2S-107" value="" style="endArrow=none;html=1;rounded=0;" parent="KqDTZnXE4y3Olz9iNi2S-105" edge="1">
          <mxGeometry width="50" height="50" relative="1" as="geometry">
            <mxPoint x="20" as="sourcePoint" />
            <mxPoint x="180" as="targetPoint" />
          </mxGeometry>
        </mxCell>
        <mxCell id="KqDTZnXE4y3Olz9iNi2S-108" value="" style="endArrow=none;html=1;rounded=0;exitX=0.5;exitY=0;exitDx=0;exitDy=0;" parent="KqDTZnXE4y3Olz9iNi2S-105" source="KqDTZnXE4y3Olz9iNi2S-106" edge="1">
          <mxGeometry width="50" height="50" relative="1" as="geometry">
            <mxPoint x="20" y="26" as="sourcePoint" />
            <mxPoint x="20" as="targetPoint" />
          </mxGeometry>
        </mxCell>
        <mxCell id="KqDTZnXE4y3Olz9iNi2S-252" value="&lt;font style=&quot;font-size: 9px;&quot;&gt;192.168.6.100/24&lt;/font&gt;" style="edgeLabel;html=1;align=center;verticalAlign=middle;resizable=0;points=[];" parent="KqDTZnXE4y3Olz9iNi2S-108" vertex="1" connectable="0">
          <mxGeometry x="-0.0751" y="2" relative="1" as="geometry">
            <mxPoint x="2" y="-1" as="offset" />
          </mxGeometry>
        </mxCell>
        <mxCell id="KqDTZnXE4y3Olz9iNi2S-109" value="" style="endArrow=none;html=1;rounded=0;exitX=0.5;exitY=0;exitDx=0;exitDy=0;" parent="KqDTZnXE4y3Olz9iNi2S-105" source="KqDTZnXE4y3Olz9iNi2S-111" edge="1">
          <mxGeometry width="50" height="50" relative="1" as="geometry">
            <mxPoint x="100" y="26" as="sourcePoint" />
            <mxPoint x="99.88" as="targetPoint" />
          </mxGeometry>
        </mxCell>
        <mxCell id="KqDTZnXE4y3Olz9iNi2S-253" value="&lt;font style=&quot;font-size: 9px;&quot;&gt;192.168.6.10/24&lt;/font&gt;" style="edgeLabel;html=1;align=center;verticalAlign=middle;resizable=0;points=[];" parent="KqDTZnXE4y3Olz9iNi2S-109" vertex="1" connectable="0">
          <mxGeometry x="-0.1474" relative="1" as="geometry">
            <mxPoint y="-2" as="offset" />
          </mxGeometry>
        </mxCell>
        <mxCell id="KqDTZnXE4y3Olz9iNi2S-110" value="" style="endArrow=none;html=1;rounded=0;exitX=0.5;exitY=0;exitDx=0;exitDy=0;" parent="KqDTZnXE4y3Olz9iNi2S-105" source="KqDTZnXE4y3Olz9iNi2S-112" edge="1">
          <mxGeometry width="50" height="50" relative="1" as="geometry">
            <mxPoint x="180" y="20" as="sourcePoint" />
            <mxPoint x="180" as="targetPoint" />
          </mxGeometry>
        </mxCell>
        <mxCell id="KqDTZnXE4y3Olz9iNi2S-254" value="&lt;font style=&quot;font-size: 9px;&quot;&gt;192.168.6.200/24&lt;/font&gt;" style="edgeLabel;html=1;align=center;verticalAlign=middle;resizable=0;points=[];" parent="KqDTZnXE4y3Olz9iNi2S-110" vertex="1" connectable="0">
          <mxGeometry x="-0.0701" y="1" relative="1" as="geometry">
            <mxPoint x="1" y="-1" as="offset" />
          </mxGeometry>
        </mxCell>
        <mxCell id="KqDTZnXE4y3Olz9iNi2S-111" value="&lt;font style=&quot;font-size: 8px;&quot;&gt;&lt;b&gt;server&lt;/b&gt;&lt;/font&gt;" style="whiteSpace=wrap;html=1;aspect=fixed;fillColor=#FFCC99;" parent="KqDTZnXE4y3Olz9iNi2S-105" vertex="1">
          <mxGeometry x="80" y="27" width="40" height="40" as="geometry" />
        </mxCell>
        <mxCell id="KqDTZnXE4y3Olz9iNi2S-112" value="&lt;font style=&quot;font-size: 8px;&quot;&gt;&lt;b&gt;client&lt;/b&gt;&lt;/font&gt;" style="whiteSpace=wrap;html=1;aspect=fixed;" parent="KqDTZnXE4y3Olz9iNi2S-105" vertex="1">
          <mxGeometry x="160" y="27" width="40" height="40" as="geometry" />
        </mxCell>
        <mxCell id="KqDTZnXE4y3Olz9iNi2S-180" value="" style="endArrow=none;html=1;rounded=0;exitX=1;exitY=1;exitDx=0;exitDy=0;entryX=0;entryY=0;entryDx=0;entryDy=0;elbow=vertical;" parent="KqDTZnXE4y3Olz9iNi2S-100" edge="1">
          <mxGeometry width="50" height="50" relative="1" as="geometry">
            <mxPoint x="114" y="74" as="sourcePoint" />
            <mxPoint x="86" y="46" as="targetPoint" />
          </mxGeometry>
        </mxCell>
        <mxCell id="KqDTZnXE4y3Olz9iNi2S-181" value="" style="endArrow=none;html=1;rounded=0;exitX=0;exitY=1;exitDx=0;exitDy=0;entryX=1;entryY=0;entryDx=0;entryDy=0;" parent="KqDTZnXE4y3Olz9iNi2S-100" edge="1">
          <mxGeometry width="50" height="50" relative="1" as="geometry">
            <mxPoint x="86" y="74" as="sourcePoint" />
            <mxPoint x="114" y="46" as="targetPoint" />
          </mxGeometry>
        </mxCell>
        <mxCell id="KqDTZnXE4y3Olz9iNi2S-113" value="" style="group" parent="KqDTZnXE4y3Olz9iNi2S-276" vertex="1" connectable="0">
          <mxGeometry x="360" y="300" width="200" height="170" as="geometry" />
        </mxCell>
        <mxCell id="KqDTZnXE4y3Olz9iNi2S-114" value="" style="endArrow=none;html=1;rounded=0;" parent="KqDTZnXE4y3Olz9iNi2S-113" edge="1">
          <mxGeometry width="50" height="50" relative="1" as="geometry">
            <mxPoint x="100" y="40" as="sourcePoint" />
            <mxPoint x="100" y="-200" as="targetPoint" />
          </mxGeometry>
        </mxCell>
        <mxCell id="KqDTZnXE4y3Olz9iNi2S-202" value="&lt;font style=&quot;font-size: 11px;&quot;&gt;10.252.108.57&lt;/font&gt;" style="edgeLabel;html=1;align=center;verticalAlign=middle;resizable=0;points=[];" parent="KqDTZnXE4y3Olz9iNi2S-114" vertex="1" connectable="0">
          <mxGeometry x="-0.739" y="1" relative="1" as="geometry">
            <mxPoint x="1" y="10" as="offset" />
          </mxGeometry>
        </mxCell>
        <mxCell id="KqDTZnXE4y3Olz9iNi2S-115" value="" style="ellipse;whiteSpace=wrap;html=1;aspect=fixed;fillColor=#FFFF99;" parent="KqDTZnXE4y3Olz9iNi2S-113" vertex="1">
          <mxGeometry x="80" y="40" width="40" height="40" as="geometry" />
        </mxCell>
        <mxCell id="KqDTZnXE4y3Olz9iNi2S-116" value="" style="group" parent="KqDTZnXE4y3Olz9iNi2S-113" vertex="1" connectable="0">
          <mxGeometry y="80" width="200" height="90" as="geometry" />
        </mxCell>
        <mxCell id="KqDTZnXE4y3Olz9iNi2S-117" value="" style="endArrow=none;html=1;rounded=0;" parent="KqDTZnXE4y3Olz9iNi2S-116" edge="1">
          <mxGeometry width="50" height="50" relative="1" as="geometry">
            <mxPoint x="100" y="30" as="sourcePoint" />
            <mxPoint x="100" as="targetPoint" />
          </mxGeometry>
        </mxCell>
        <mxCell id="KqDTZnXE4y3Olz9iNi2S-214" value="&lt;font style=&quot;font-size: 10px;&quot;&gt;192.168.7.1/24&lt;/font&gt;" style="edgeLabel;html=1;align=center;verticalAlign=middle;resizable=0;points=[];" parent="KqDTZnXE4y3Olz9iNi2S-117" vertex="1" connectable="0">
          <mxGeometry x="0.0519" y="1" relative="1" as="geometry">
            <mxPoint x="1" as="offset" />
          </mxGeometry>
        </mxCell>
        <mxCell id="KqDTZnXE4y3Olz9iNi2S-118" value="" style="group" parent="KqDTZnXE4y3Olz9iNi2S-116" vertex="1" connectable="0">
          <mxGeometry y="30" width="200" height="60" as="geometry" />
        </mxCell>
        <mxCell id="KqDTZnXE4y3Olz9iNi2S-119" value="&lt;font style=&quot;font-size: 8px;&quot;&gt;&lt;b&gt;client&lt;/b&gt;&lt;/font&gt;" style="whiteSpace=wrap;html=1;aspect=fixed;" parent="KqDTZnXE4y3Olz9iNi2S-118" vertex="1">
          <mxGeometry y="27" width="40" height="40" as="geometry" />
        </mxCell>
        <mxCell id="KqDTZnXE4y3Olz9iNi2S-120" value="" style="endArrow=none;html=1;rounded=0;" parent="KqDTZnXE4y3Olz9iNi2S-118" edge="1">
          <mxGeometry width="50" height="50" relative="1" as="geometry">
            <mxPoint x="20" as="sourcePoint" />
            <mxPoint x="180" as="targetPoint" />
          </mxGeometry>
        </mxCell>
        <mxCell id="KqDTZnXE4y3Olz9iNi2S-121" value="" style="endArrow=none;html=1;rounded=0;exitX=0.5;exitY=0;exitDx=0;exitDy=0;" parent="KqDTZnXE4y3Olz9iNi2S-118" source="KqDTZnXE4y3Olz9iNi2S-119" edge="1">
          <mxGeometry width="50" height="50" relative="1" as="geometry">
            <mxPoint x="20" y="20" as="sourcePoint" />
            <mxPoint x="20" as="targetPoint" />
          </mxGeometry>
        </mxCell>
        <mxCell id="KqDTZnXE4y3Olz9iNi2S-255" value="&lt;font style=&quot;font-size: 9px;&quot;&gt;192.168.7.100/24&lt;/font&gt;" style="edgeLabel;html=1;align=center;verticalAlign=middle;resizable=0;points=[];" parent="KqDTZnXE4y3Olz9iNi2S-121" vertex="1" connectable="0">
          <mxGeometry x="0.0571" relative="1" as="geometry">
            <mxPoint y="1" as="offset" />
          </mxGeometry>
        </mxCell>
        <mxCell id="KqDTZnXE4y3Olz9iNi2S-122" value="" style="endArrow=none;html=1;rounded=0;exitX=0.5;exitY=0;exitDx=0;exitDy=0;" parent="KqDTZnXE4y3Olz9iNi2S-118" source="KqDTZnXE4y3Olz9iNi2S-124" edge="1">
          <mxGeometry width="50" height="50" relative="1" as="geometry">
            <mxPoint x="99.88" y="20" as="sourcePoint" />
            <mxPoint x="99.88" as="targetPoint" />
          </mxGeometry>
        </mxCell>
        <mxCell id="KqDTZnXE4y3Olz9iNi2S-256" value="&lt;font style=&quot;font-size: 9px;&quot;&gt;192.168.7.10/24&lt;/font&gt;" style="edgeLabel;html=1;align=center;verticalAlign=middle;resizable=0;points=[];" parent="KqDTZnXE4y3Olz9iNi2S-122" vertex="1" connectable="0">
          <mxGeometry x="-0.0385" y="-1" relative="1" as="geometry">
            <mxPoint x="-1" as="offset" />
          </mxGeometry>
        </mxCell>
        <mxCell id="KqDTZnXE4y3Olz9iNi2S-123" value="" style="endArrow=none;html=1;rounded=0;exitX=0.5;exitY=0;exitDx=0;exitDy=0;" parent="KqDTZnXE4y3Olz9iNi2S-118" source="KqDTZnXE4y3Olz9iNi2S-125" edge="1">
          <mxGeometry width="50" height="50" relative="1" as="geometry">
            <mxPoint x="180" y="20" as="sourcePoint" />
            <mxPoint x="180" as="targetPoint" />
          </mxGeometry>
        </mxCell>
        <mxCell id="KqDTZnXE4y3Olz9iNi2S-257" value="&lt;font style=&quot;font-size: 9px;&quot;&gt;192.168.7.200/24&lt;/font&gt;" style="edgeLabel;html=1;align=center;verticalAlign=middle;resizable=0;points=[];" parent="KqDTZnXE4y3Olz9iNi2S-123" vertex="1" connectable="0">
          <mxGeometry x="-0.1638" relative="1" as="geometry">
            <mxPoint y="-2" as="offset" />
          </mxGeometry>
        </mxCell>
        <mxCell id="KqDTZnXE4y3Olz9iNi2S-124" value="&lt;font style=&quot;font-size: 8px;&quot;&gt;&lt;b&gt;server&lt;/b&gt;&lt;/font&gt;" style="whiteSpace=wrap;html=1;aspect=fixed;fillColor=#FFCC99;" parent="KqDTZnXE4y3Olz9iNi2S-118" vertex="1">
          <mxGeometry x="80" y="27" width="40" height="40" as="geometry" />
        </mxCell>
        <mxCell id="KqDTZnXE4y3Olz9iNi2S-125" value="&lt;font style=&quot;font-size: 8px;&quot;&gt;&lt;b&gt;client&lt;/b&gt;&lt;/font&gt;" style="whiteSpace=wrap;html=1;aspect=fixed;" parent="KqDTZnXE4y3Olz9iNi2S-118" vertex="1">
          <mxGeometry x="160" y="27" width="40" height="40" as="geometry" />
        </mxCell>
        <mxCell id="KqDTZnXE4y3Olz9iNi2S-182" value="" style="endArrow=none;html=1;rounded=0;exitX=1;exitY=1;exitDx=0;exitDy=0;entryX=0;entryY=0;entryDx=0;entryDy=0;elbow=vertical;" parent="KqDTZnXE4y3Olz9iNi2S-113" edge="1">
          <mxGeometry width="50" height="50" relative="1" as="geometry">
            <mxPoint x="114" y="74" as="sourcePoint" />
            <mxPoint x="86" y="46" as="targetPoint" />
          </mxGeometry>
        </mxCell>
        <mxCell id="KqDTZnXE4y3Olz9iNi2S-183" value="" style="endArrow=none;html=1;rounded=0;exitX=0;exitY=1;exitDx=0;exitDy=0;entryX=1;entryY=0;entryDx=0;entryDy=0;" parent="KqDTZnXE4y3Olz9iNi2S-113" edge="1">
          <mxGeometry width="50" height="50" relative="1" as="geometry">
            <mxPoint x="86" y="74" as="sourcePoint" />
            <mxPoint x="114" y="46" as="targetPoint" />
          </mxGeometry>
        </mxCell>
        <mxCell id="KqDTZnXE4y3Olz9iNi2S-126" value="s" style="group" parent="KqDTZnXE4y3Olz9iNi2S-276" vertex="1" connectable="0">
          <mxGeometry x="600" y="300" width="200" height="170" as="geometry" />
        </mxCell>
        <mxCell id="KqDTZnXE4y3Olz9iNi2S-127" value="" style="endArrow=none;html=1;rounded=0;" parent="KqDTZnXE4y3Olz9iNi2S-126" edge="1">
          <mxGeometry width="50" height="50" relative="1" as="geometry">
            <mxPoint x="100" y="40" as="sourcePoint" />
            <mxPoint x="100" y="-200" as="targetPoint" />
          </mxGeometry>
        </mxCell>
        <mxCell id="KqDTZnXE4y3Olz9iNi2S-203" value="&lt;font style=&quot;font-size: 11px;&quot;&gt;10.252.108.58&lt;/font&gt;" style="edgeLabel;html=1;align=center;verticalAlign=middle;resizable=0;points=[];" parent="KqDTZnXE4y3Olz9iNi2S-127" vertex="1" connectable="0">
          <mxGeometry x="-0.709" y="1" relative="1" as="geometry">
            <mxPoint x="1" y="12" as="offset" />
          </mxGeometry>
        </mxCell>
        <mxCell id="KqDTZnXE4y3Olz9iNi2S-128" value="" style="ellipse;whiteSpace=wrap;html=1;aspect=fixed;fillColor=#FFFF99;" parent="KqDTZnXE4y3Olz9iNi2S-126" vertex="1">
          <mxGeometry x="80" y="40" width="40" height="40" as="geometry" />
        </mxCell>
        <mxCell id="KqDTZnXE4y3Olz9iNi2S-129" value="" style="group" parent="KqDTZnXE4y3Olz9iNi2S-126" vertex="1" connectable="0">
          <mxGeometry y="80" width="200" height="90" as="geometry" />
        </mxCell>
        <mxCell id="KqDTZnXE4y3Olz9iNi2S-130" value="" style="endArrow=none;html=1;rounded=0;" parent="KqDTZnXE4y3Olz9iNi2S-129" edge="1">
          <mxGeometry width="50" height="50" relative="1" as="geometry">
            <mxPoint x="100" y="30" as="sourcePoint" />
            <mxPoint x="100" as="targetPoint" />
          </mxGeometry>
        </mxCell>
        <mxCell id="KqDTZnXE4y3Olz9iNi2S-215" value="&lt;font style=&quot;font-size: 10px;&quot;&gt;192.168.8.1/24&lt;/font&gt;" style="edgeLabel;html=1;align=center;verticalAlign=middle;resizable=0;points=[];" parent="KqDTZnXE4y3Olz9iNi2S-130" vertex="1" connectable="0">
          <mxGeometry x="-0.0716" relative="1" as="geometry">
            <mxPoint y="-1" as="offset" />
          </mxGeometry>
        </mxCell>
        <mxCell id="KqDTZnXE4y3Olz9iNi2S-131" value="" style="group" parent="KqDTZnXE4y3Olz9iNi2S-129" vertex="1" connectable="0">
          <mxGeometry y="30" width="200" height="60" as="geometry" />
        </mxCell>
        <mxCell id="KqDTZnXE4y3Olz9iNi2S-132" value="&lt;font style=&quot;font-size: 8px;&quot;&gt;&lt;b&gt;client&lt;/b&gt;&lt;/font&gt;" style="whiteSpace=wrap;html=1;aspect=fixed;" parent="KqDTZnXE4y3Olz9iNi2S-131" vertex="1">
          <mxGeometry y="27" width="40" height="40" as="geometry" />
        </mxCell>
        <mxCell id="KqDTZnXE4y3Olz9iNi2S-133" value="" style="endArrow=none;html=1;rounded=0;" parent="KqDTZnXE4y3Olz9iNi2S-131" edge="1">
          <mxGeometry width="50" height="50" relative="1" as="geometry">
            <mxPoint x="20" as="sourcePoint" />
            <mxPoint x="180" as="targetPoint" />
          </mxGeometry>
        </mxCell>
        <mxCell id="KqDTZnXE4y3Olz9iNi2S-134" value="" style="endArrow=none;html=1;rounded=0;exitX=0.5;exitY=0;exitDx=0;exitDy=0;" parent="KqDTZnXE4y3Olz9iNi2S-131" source="KqDTZnXE4y3Olz9iNi2S-132" edge="1">
          <mxGeometry width="50" height="50" relative="1" as="geometry">
            <mxPoint x="20" y="20" as="sourcePoint" />
            <mxPoint x="20" as="targetPoint" />
          </mxGeometry>
        </mxCell>
        <mxCell id="KqDTZnXE4y3Olz9iNi2S-259" value="&lt;font style=&quot;font-size: 9px;&quot;&gt;192.168.8.100/24&lt;/font&gt;" style="edgeLabel;html=1;align=center;verticalAlign=middle;resizable=0;points=[];" parent="KqDTZnXE4y3Olz9iNi2S-134" vertex="1" connectable="0">
          <mxGeometry x="-0.064" relative="1" as="geometry">
            <mxPoint y="-1" as="offset" />
          </mxGeometry>
        </mxCell>
        <mxCell id="KqDTZnXE4y3Olz9iNi2S-135" value="" style="endArrow=none;html=1;rounded=0;exitX=0.5;exitY=0;exitDx=0;exitDy=0;" parent="KqDTZnXE4y3Olz9iNi2S-131" source="KqDTZnXE4y3Olz9iNi2S-137" edge="1">
          <mxGeometry width="50" height="50" relative="1" as="geometry">
            <mxPoint x="99.88" y="20" as="sourcePoint" />
            <mxPoint x="99.88" as="targetPoint" />
          </mxGeometry>
        </mxCell>
        <mxCell id="KqDTZnXE4y3Olz9iNi2S-260" value="&lt;font style=&quot;font-size: 9px;&quot;&gt;192.168.8.10/24&lt;/font&gt;" style="edgeLabel;html=1;align=center;verticalAlign=middle;resizable=0;points=[];" parent="KqDTZnXE4y3Olz9iNi2S-135" vertex="1" connectable="0">
          <mxGeometry x="-0.2088" relative="1" as="geometry">
            <mxPoint y="-2" as="offset" />
          </mxGeometry>
        </mxCell>
        <mxCell id="KqDTZnXE4y3Olz9iNi2S-136" value="" style="endArrow=none;html=1;rounded=0;exitX=0.5;exitY=0;exitDx=0;exitDy=0;" parent="KqDTZnXE4y3Olz9iNi2S-131" source="KqDTZnXE4y3Olz9iNi2S-138" edge="1">
          <mxGeometry width="50" height="50" relative="1" as="geometry">
            <mxPoint x="180" y="20" as="sourcePoint" />
            <mxPoint x="180" as="targetPoint" />
          </mxGeometry>
        </mxCell>
        <mxCell id="KqDTZnXE4y3Olz9iNi2S-261" value="&lt;font style=&quot;font-size: 9px;&quot;&gt;192.168.8.200/24&lt;/font&gt;" style="edgeLabel;html=1;align=center;verticalAlign=middle;resizable=0;points=[];" parent="KqDTZnXE4y3Olz9iNi2S-136" vertex="1" connectable="0">
          <mxGeometry x="0.0303" relative="1" as="geometry">
            <mxPoint y="1" as="offset" />
          </mxGeometry>
        </mxCell>
        <mxCell id="KqDTZnXE4y3Olz9iNi2S-137" value="&lt;font style=&quot;font-size: 8px;&quot;&gt;&lt;b&gt;server&lt;/b&gt;&lt;/font&gt;" style="whiteSpace=wrap;html=1;aspect=fixed;fillColor=#FFCC99;" parent="KqDTZnXE4y3Olz9iNi2S-131" vertex="1">
          <mxGeometry x="80" y="27" width="40" height="40" as="geometry" />
        </mxCell>
        <mxCell id="KqDTZnXE4y3Olz9iNi2S-138" value="&lt;font style=&quot;font-size: 8px;&quot;&gt;&lt;b&gt;client&lt;/b&gt;&lt;/font&gt;" style="whiteSpace=wrap;html=1;aspect=fixed;" parent="KqDTZnXE4y3Olz9iNi2S-131" vertex="1">
          <mxGeometry x="160" y="27" width="40" height="40" as="geometry" />
        </mxCell>
        <mxCell id="KqDTZnXE4y3Olz9iNi2S-184" value="" style="endArrow=none;html=1;rounded=0;exitX=1;exitY=1;exitDx=0;exitDy=0;entryX=0;entryY=0;entryDx=0;entryDy=0;elbow=vertical;" parent="KqDTZnXE4y3Olz9iNi2S-126" edge="1">
          <mxGeometry width="50" height="50" relative="1" as="geometry">
            <mxPoint x="114" y="74" as="sourcePoint" />
            <mxPoint x="86" y="46" as="targetPoint" />
          </mxGeometry>
        </mxCell>
        <mxCell id="KqDTZnXE4y3Olz9iNi2S-185" value="" style="endArrow=none;html=1;rounded=0;exitX=0;exitY=1;exitDx=0;exitDy=0;entryX=1;entryY=0;entryDx=0;entryDy=0;" parent="KqDTZnXE4y3Olz9iNi2S-126" edge="1">
          <mxGeometry width="50" height="50" relative="1" as="geometry">
            <mxPoint x="86" y="74" as="sourcePoint" />
            <mxPoint x="114" y="46" as="targetPoint" />
          </mxGeometry>
        </mxCell>
        <mxCell id="KqDTZnXE4y3Olz9iNi2S-139" value="" style="group" parent="KqDTZnXE4y3Olz9iNi2S-276" vertex="1" connectable="0">
          <mxGeometry x="840" y="300" width="200" height="170" as="geometry" />
        </mxCell>
        <mxCell id="KqDTZnXE4y3Olz9iNi2S-140" value="" style="endArrow=none;html=1;rounded=0;" parent="KqDTZnXE4y3Olz9iNi2S-139" edge="1">
          <mxGeometry width="50" height="50" relative="1" as="geometry">
            <mxPoint x="100" y="40" as="sourcePoint" />
            <mxPoint x="100" y="-200" as="targetPoint" />
          </mxGeometry>
        </mxCell>
        <mxCell id="KqDTZnXE4y3Olz9iNi2S-204" value="&lt;font style=&quot;font-size: 11px;&quot;&gt;10.252.108.59&lt;/font&gt;" style="edgeLabel;html=1;align=center;verticalAlign=middle;resizable=0;points=[];" parent="KqDTZnXE4y3Olz9iNi2S-140" vertex="1" connectable="0">
          <mxGeometry x="-0.7023" relative="1" as="geometry">
            <mxPoint y="15" as="offset" />
          </mxGeometry>
        </mxCell>
        <mxCell id="KqDTZnXE4y3Olz9iNi2S-141" value="" style="ellipse;whiteSpace=wrap;html=1;aspect=fixed;fillColor=#FFFF99;" parent="KqDTZnXE4y3Olz9iNi2S-139" vertex="1">
          <mxGeometry x="80" y="40" width="40" height="40" as="geometry" />
        </mxCell>
        <mxCell id="KqDTZnXE4y3Olz9iNi2S-142" value="" style="group" parent="KqDTZnXE4y3Olz9iNi2S-139" vertex="1" connectable="0">
          <mxGeometry y="80" width="200" height="90" as="geometry" />
        </mxCell>
        <mxCell id="KqDTZnXE4y3Olz9iNi2S-143" value="" style="endArrow=none;html=1;rounded=0;" parent="KqDTZnXE4y3Olz9iNi2S-142" edge="1">
          <mxGeometry width="50" height="50" relative="1" as="geometry">
            <mxPoint x="100" y="30" as="sourcePoint" />
            <mxPoint x="100" as="targetPoint" />
          </mxGeometry>
        </mxCell>
        <mxCell id="KqDTZnXE4y3Olz9iNi2S-216" value="&lt;font style=&quot;font-size: 10px;&quot;&gt;192.168.9.1/24&lt;/font&gt;" style="edgeLabel;html=1;align=center;verticalAlign=middle;resizable=0;points=[];" parent="KqDTZnXE4y3Olz9iNi2S-143" vertex="1" connectable="0">
          <mxGeometry x="0.2494" y="1" relative="1" as="geometry">
            <mxPoint x="1" y="4" as="offset" />
          </mxGeometry>
        </mxCell>
        <mxCell id="KqDTZnXE4y3Olz9iNi2S-144" value="" style="group" parent="KqDTZnXE4y3Olz9iNi2S-142" vertex="1" connectable="0">
          <mxGeometry y="30" width="200" height="60" as="geometry" />
        </mxCell>
        <mxCell id="KqDTZnXE4y3Olz9iNi2S-145" value="&lt;font style=&quot;font-size: 8px;&quot;&gt;&lt;b&gt;client&lt;/b&gt;&lt;/font&gt;" style="whiteSpace=wrap;html=1;aspect=fixed;" parent="KqDTZnXE4y3Olz9iNi2S-144" vertex="1">
          <mxGeometry y="27" width="40" height="40" as="geometry" />
        </mxCell>
        <mxCell id="KqDTZnXE4y3Olz9iNi2S-146" value="" style="endArrow=none;html=1;rounded=0;" parent="KqDTZnXE4y3Olz9iNi2S-144" edge="1">
          <mxGeometry width="50" height="50" relative="1" as="geometry">
            <mxPoint x="20" as="sourcePoint" />
            <mxPoint x="180" as="targetPoint" />
          </mxGeometry>
        </mxCell>
        <mxCell id="KqDTZnXE4y3Olz9iNi2S-147" value="" style="endArrow=none;html=1;rounded=0;exitX=0.5;exitY=0;exitDx=0;exitDy=0;" parent="KqDTZnXE4y3Olz9iNi2S-144" source="KqDTZnXE4y3Olz9iNi2S-145" edge="1">
          <mxGeometry width="50" height="50" relative="1" as="geometry">
            <mxPoint x="20" y="20" as="sourcePoint" />
            <mxPoint x="20" as="targetPoint" />
          </mxGeometry>
        </mxCell>
        <mxCell id="KqDTZnXE4y3Olz9iNi2S-262" value="&lt;font style=&quot;font-size: 9px;&quot;&gt;192.168.9.100/24&lt;/font&gt;" style="edgeLabel;html=1;align=center;verticalAlign=middle;resizable=0;points=[];" parent="KqDTZnXE4y3Olz9iNi2S-147" vertex="1" connectable="0">
          <mxGeometry x="0.1605" relative="1" as="geometry">
            <mxPoint y="3" as="offset" />
          </mxGeometry>
        </mxCell>
        <mxCell id="KqDTZnXE4y3Olz9iNi2S-148" value="" style="endArrow=none;html=1;rounded=0;exitX=0.5;exitY=0;exitDx=0;exitDy=0;" parent="KqDTZnXE4y3Olz9iNi2S-144" source="KqDTZnXE4y3Olz9iNi2S-150" edge="1">
          <mxGeometry width="50" height="50" relative="1" as="geometry">
            <mxPoint x="100" y="26" as="sourcePoint" />
            <mxPoint x="99.88" as="targetPoint" />
          </mxGeometry>
        </mxCell>
        <mxCell id="KqDTZnXE4y3Olz9iNi2S-263" value="&lt;font style=&quot;font-size: 9px;&quot;&gt;192.168.9.10/24&lt;/font&gt;" style="edgeLabel;html=1;align=center;verticalAlign=middle;resizable=0;points=[];" parent="KqDTZnXE4y3Olz9iNi2S-148" vertex="1" connectable="0">
          <mxGeometry x="0.1408" relative="1" as="geometry">
            <mxPoint y="2" as="offset" />
          </mxGeometry>
        </mxCell>
        <mxCell id="KqDTZnXE4y3Olz9iNi2S-149" value="" style="endArrow=none;html=1;rounded=0;exitX=0.5;exitY=0;exitDx=0;exitDy=0;" parent="KqDTZnXE4y3Olz9iNi2S-144" source="KqDTZnXE4y3Olz9iNi2S-151" edge="1">
          <mxGeometry width="50" height="50" relative="1" as="geometry">
            <mxPoint x="180" y="20" as="sourcePoint" />
            <mxPoint x="180" as="targetPoint" />
          </mxGeometry>
        </mxCell>
        <mxCell id="KqDTZnXE4y3Olz9iNi2S-264" value="&lt;font style=&quot;font-size: 9px;&quot;&gt;192.168.9.200/24&lt;/font&gt;" style="edgeLabel;html=1;align=center;verticalAlign=middle;resizable=0;points=[];" parent="KqDTZnXE4y3Olz9iNi2S-149" vertex="1" connectable="0">
          <mxGeometry x="-0.0765" relative="1" as="geometry">
            <mxPoint y="-1" as="offset" />
          </mxGeometry>
        </mxCell>
        <mxCell id="KqDTZnXE4y3Olz9iNi2S-150" value="&lt;font style=&quot;font-size: 8px;&quot;&gt;&lt;b&gt;server&lt;/b&gt;&lt;/font&gt;" style="whiteSpace=wrap;html=1;aspect=fixed;fillColor=#FFCC99;" parent="KqDTZnXE4y3Olz9iNi2S-144" vertex="1">
          <mxGeometry x="80" y="27" width="40" height="40" as="geometry" />
        </mxCell>
        <mxCell id="KqDTZnXE4y3Olz9iNi2S-151" value="&lt;font style=&quot;font-size: 8px;&quot;&gt;&lt;b&gt;client&lt;/b&gt;&lt;/font&gt;" style="whiteSpace=wrap;html=1;aspect=fixed;" parent="KqDTZnXE4y3Olz9iNi2S-144" vertex="1">
          <mxGeometry x="160" y="27" width="40" height="40" as="geometry" />
        </mxCell>
        <mxCell id="KqDTZnXE4y3Olz9iNi2S-191" value="" style="endArrow=none;html=1;rounded=0;exitX=1;exitY=1;exitDx=0;exitDy=0;entryX=0;entryY=0;entryDx=0;entryDy=0;elbow=vertical;" parent="KqDTZnXE4y3Olz9iNi2S-139" edge="1">
          <mxGeometry width="50" height="50" relative="1" as="geometry">
            <mxPoint x="114" y="74" as="sourcePoint" />
            <mxPoint x="86" y="46" as="targetPoint" />
          </mxGeometry>
        </mxCell>
        <mxCell id="KqDTZnXE4y3Olz9iNi2S-192" value="" style="endArrow=none;html=1;rounded=0;exitX=0;exitY=1;exitDx=0;exitDy=0;entryX=1;entryY=0;entryDx=0;entryDy=0;" parent="KqDTZnXE4y3Olz9iNi2S-139" edge="1">
          <mxGeometry width="50" height="50" relative="1" as="geometry">
            <mxPoint x="86" y="74" as="sourcePoint" />
            <mxPoint x="114" y="46" as="targetPoint" />
          </mxGeometry>
        </mxCell>
        <mxCell id="KqDTZnXE4y3Olz9iNi2S-155" value="" style="group" parent="KqDTZnXE4y3Olz9iNi2S-276" vertex="1" connectable="0">
          <mxGeometry x="1080" y="300" width="200" height="170" as="geometry" />
        </mxCell>
        <mxCell id="KqDTZnXE4y3Olz9iNi2S-156" value="" style="endArrow=none;html=1;rounded=0;" parent="KqDTZnXE4y3Olz9iNi2S-155" edge="1">
          <mxGeometry width="50" height="50" relative="1" as="geometry">
            <mxPoint x="100" y="40" as="sourcePoint" />
            <mxPoint x="100" y="-200" as="targetPoint" />
          </mxGeometry>
        </mxCell>
        <mxCell id="KqDTZnXE4y3Olz9iNi2S-205" value="&lt;font style=&quot;font-size: 11px;&quot;&gt;10.252.108.60&lt;/font&gt;" style="edgeLabel;html=1;align=center;verticalAlign=middle;resizable=0;points=[];" parent="KqDTZnXE4y3Olz9iNi2S-156" vertex="1" connectable="0">
          <mxGeometry x="-0.7057" y="1" relative="1" as="geometry">
            <mxPoint x="1" y="12" as="offset" />
          </mxGeometry>
        </mxCell>
        <mxCell id="KqDTZnXE4y3Olz9iNi2S-157" value="" style="ellipse;whiteSpace=wrap;html=1;aspect=fixed;fillColor=#FFFF99;" parent="KqDTZnXE4y3Olz9iNi2S-155" vertex="1">
          <mxGeometry x="80" y="40" width="40" height="40" as="geometry" />
        </mxCell>
        <mxCell id="KqDTZnXE4y3Olz9iNi2S-158" value="" style="group" parent="KqDTZnXE4y3Olz9iNi2S-155" vertex="1" connectable="0">
          <mxGeometry y="80" width="200" height="90" as="geometry" />
        </mxCell>
        <mxCell id="KqDTZnXE4y3Olz9iNi2S-159" value="" style="endArrow=none;html=1;rounded=0;" parent="KqDTZnXE4y3Olz9iNi2S-158" edge="1">
          <mxGeometry width="50" height="50" relative="1" as="geometry">
            <mxPoint x="100" y="30" as="sourcePoint" />
            <mxPoint x="100" as="targetPoint" />
          </mxGeometry>
        </mxCell>
        <mxCell id="KqDTZnXE4y3Olz9iNi2S-217" value="&lt;font style=&quot;font-size: 10px;&quot;&gt;192.168.10.1/24&lt;/font&gt;" style="edgeLabel;html=1;align=center;verticalAlign=middle;resizable=0;points=[];" parent="KqDTZnXE4y3Olz9iNi2S-159" vertex="1" connectable="0">
          <mxGeometry x="0.1259" relative="1" as="geometry">
            <mxPoint y="1" as="offset" />
          </mxGeometry>
        </mxCell>
        <mxCell id="KqDTZnXE4y3Olz9iNi2S-160" value="" style="group" parent="KqDTZnXE4y3Olz9iNi2S-158" vertex="1" connectable="0">
          <mxGeometry y="30" width="200" height="60" as="geometry" />
        </mxCell>
        <mxCell id="KqDTZnXE4y3Olz9iNi2S-161" value="&lt;font style=&quot;font-size: 8px;&quot;&gt;&lt;b&gt;client&lt;/b&gt;&lt;/font&gt;" style="whiteSpace=wrap;html=1;aspect=fixed;" parent="KqDTZnXE4y3Olz9iNi2S-160" vertex="1">
          <mxGeometry y="27" width="40" height="40" as="geometry" />
        </mxCell>
        <mxCell id="KqDTZnXE4y3Olz9iNi2S-162" value="" style="endArrow=none;html=1;rounded=0;" parent="KqDTZnXE4y3Olz9iNi2S-160" edge="1">
          <mxGeometry width="50" height="50" relative="1" as="geometry">
            <mxPoint x="20" as="sourcePoint" />
            <mxPoint x="180" as="targetPoint" />
          </mxGeometry>
        </mxCell>
        <mxCell id="KqDTZnXE4y3Olz9iNi2S-163" value="" style="endArrow=none;html=1;rounded=0;exitX=0.5;exitY=0;exitDx=0;exitDy=0;" parent="KqDTZnXE4y3Olz9iNi2S-160" source="KqDTZnXE4y3Olz9iNi2S-161" edge="1">
          <mxGeometry width="50" height="50" relative="1" as="geometry">
            <mxPoint x="20" y="20" as="sourcePoint" />
            <mxPoint x="20" as="targetPoint" />
          </mxGeometry>
        </mxCell>
        <mxCell id="KqDTZnXE4y3Olz9iNi2S-265" value="&lt;font style=&quot;font-size: 9px;&quot;&gt;192.168.10.100/24&lt;/font&gt;" style="edgeLabel;html=1;align=center;verticalAlign=middle;resizable=0;points=[];" parent="KqDTZnXE4y3Olz9iNi2S-163" vertex="1" connectable="0">
          <mxGeometry x="0.0074" relative="1" as="geometry">
            <mxPoint as="offset" />
          </mxGeometry>
        </mxCell>
        <mxCell id="KqDTZnXE4y3Olz9iNi2S-164" value="" style="endArrow=none;html=1;rounded=0;exitX=0.5;exitY=0;exitDx=0;exitDy=0;" parent="KqDTZnXE4y3Olz9iNi2S-160" source="KqDTZnXE4y3Olz9iNi2S-166" edge="1">
          <mxGeometry width="50" height="50" relative="1" as="geometry">
            <mxPoint x="99.88" y="20" as="sourcePoint" />
            <mxPoint x="99.88" as="targetPoint" />
          </mxGeometry>
        </mxCell>
        <mxCell id="KqDTZnXE4y3Olz9iNi2S-266" value="&lt;font style=&quot;font-size: 9px;&quot;&gt;192.168.10.10/24&lt;/font&gt;" style="edgeLabel;html=1;align=center;verticalAlign=middle;resizable=0;points=[];" parent="KqDTZnXE4y3Olz9iNi2S-164" vertex="1" connectable="0">
          <mxGeometry x="-0.0219" y="1" relative="1" as="geometry">
            <mxPoint x="1" as="offset" />
          </mxGeometry>
        </mxCell>
        <mxCell id="KqDTZnXE4y3Olz9iNi2S-165" value="" style="endArrow=none;html=1;rounded=0;exitX=0.5;exitY=0;exitDx=0;exitDy=0;" parent="KqDTZnXE4y3Olz9iNi2S-160" source="KqDTZnXE4y3Olz9iNi2S-167" edge="1">
          <mxGeometry width="50" height="50" relative="1" as="geometry">
            <mxPoint x="180" y="20" as="sourcePoint" />
            <mxPoint x="180" as="targetPoint" />
          </mxGeometry>
        </mxCell>
        <mxCell id="KqDTZnXE4y3Olz9iNi2S-267" value="&lt;font style=&quot;font-size: 9px;&quot;&gt;192.168.10.200/24&lt;/font&gt;" style="edgeLabel;html=1;align=center;verticalAlign=middle;resizable=0;points=[];" parent="KqDTZnXE4y3Olz9iNi2S-165" vertex="1" connectable="0">
          <mxGeometry x="0.12" relative="1" as="geometry">
            <mxPoint y="2" as="offset" />
          </mxGeometry>
        </mxCell>
        <mxCell id="KqDTZnXE4y3Olz9iNi2S-166" value="&lt;font style=&quot;font-size: 8px;&quot;&gt;&lt;b&gt;server&lt;/b&gt;&lt;/font&gt;" style="whiteSpace=wrap;html=1;aspect=fixed;fillColor=#FFCC99;" parent="KqDTZnXE4y3Olz9iNi2S-160" vertex="1">
          <mxGeometry x="80" y="27" width="40" height="40" as="geometry" />
        </mxCell>
        <mxCell id="KqDTZnXE4y3Olz9iNi2S-167" value="&lt;font style=&quot;font-size: 8px;&quot;&gt;&lt;b&gt;client&lt;/b&gt;&lt;/font&gt;" style="whiteSpace=wrap;html=1;aspect=fixed;" parent="KqDTZnXE4y3Olz9iNi2S-160" vertex="1">
          <mxGeometry x="160" y="27" width="40" height="40" as="geometry" />
        </mxCell>
        <mxCell id="KqDTZnXE4y3Olz9iNi2S-193" value="" style="endArrow=none;html=1;rounded=0;exitX=0;exitY=1;exitDx=0;exitDy=0;entryX=1;entryY=0;entryDx=0;entryDy=0;" parent="KqDTZnXE4y3Olz9iNi2S-155" edge="1">
          <mxGeometry width="50" height="50" relative="1" as="geometry">
            <mxPoint x="86" y="74" as="sourcePoint" />
            <mxPoint x="114" y="46" as="targetPoint" />
          </mxGeometry>
        </mxCell>
        <mxCell id="KqDTZnXE4y3Olz9iNi2S-194" value="" style="endArrow=none;html=1;rounded=0;exitX=1;exitY=1;exitDx=0;exitDy=0;entryX=0;entryY=0;entryDx=0;entryDy=0;elbow=vertical;" parent="KqDTZnXE4y3Olz9iNi2S-155" edge="1">
          <mxGeometry width="50" height="50" relative="1" as="geometry">
            <mxPoint x="114" y="74" as="sourcePoint" />
            <mxPoint x="86" y="46" as="targetPoint" />
          </mxGeometry>
        </mxCell>
        <mxCell id="KqDTZnXE4y3Olz9iNi2S-269" value="&lt;font style=&quot;font-size: 12px;&quot;&gt;10.252.108.10/24&lt;/font&gt;" style="edgeLabel;html=1;align=center;verticalAlign=middle;resizable=0;points=[];" parent="KqDTZnXE4y3Olz9iNi2S-276" vertex="1" connectable="0">
          <mxGeometry x="654.9966675733225" y="34.99689333061339" as="geometry">
            <mxPoint x="28" y="-15" as="offset" />
          </mxGeometry>
        </mxCell>
      </root>
    </mxGraphModel>
  </diagram>
</mxfile>
